<svg xmlns="http://www.w3.org/2000/svg" viewBox="0 0 64 64">
  <g fill="#000000">
    <!-- tractor body -->
    <path d="M 4 35 L 12 35 L 12 30 L 16 30 L 16 35 L 28 35 L 30 47 L 4 47 Z" />
    <!-- cab and roof -->
    <rect x="11" y="24" width="18" height="2" />
    <path d="M 13 26 L 13 35 L 27 35 L 25 26 Z" fill="none" stroke="#000" stroke-width="2" />
    <!-- exhaust -->
    <path d="M 7 29 L 7 34 L 8 34 L 8 30 L 9 30 L 9 29 Z" />
    <path d="M 10 32 L 10 34 L 11 34 L 11 32 Z" />
    <!-- arm and bucket -->
    <path d="M 28 35 L 38 22 L 50 18 L 48 22 L 36 26 L 31 35 Z" />
    <circle cx="40" cy="24" r="1.5" fill="#fff" />
    <path d="M 33 26 L 30 35 L 28 35 Z" />
    <!-- bucket -->
    <path d="M 50 13 L 52 12 L 60 25 L 61 26 L 54 24 L 50 18 L 49 19 Z" />
    <!-- wheels surround -->
    <path d="M 4 42 L 32 42 A 9 9 0 0 1 42 47 L 38 47 A 7 7 0 0 0 24 47 L 16 47 A 7 7 0 0 0 2 47 L 0 47 L 0 42 Z" />
    <!-- back wheel -->
    <circle cx="11" cy="46" r="6" />
    <circle cx="11" cy="46" r="3" fill="#fff" />
    <circle cx="11" cy="46" r="1" />
    <!-- front wheel -->
    <circle cx="33" cy="46" r="6" />
    <circle cx="33" cy="46" r="3" fill="#fff" />
    <circle cx="33" cy="46" r="1" />
    <!-- details -->
    <rect x="5" y="38" width="6" height="1" fill="#fff" />
    <rect x="5" y="40" width="6" height="1" fill="#fff" />
  </g>
</svg>
